<svg xmlns="http://www.w3.org/2000/svg" xmlns:xlink="http://www.w3.org/1999/xlink" width="3120" height="3418.7">
  <defs>
    <linearGradient id="b">
      <stop offset=".4" style="stop-color:#f1e713;stop-opacity:1"/>
      <stop offset="1" style="stop-color:#ee1c1c;stop-opacity:1"/>
    </linearGradient>
    <linearGradient id="a">
      <stop offset="0" style="stop-color:#414141;stop-opacity:1"/>
      <stop offset=".5" style="stop-color:#fff;stop-opacity:1"/>
      <stop offset="1" style="stop-color:#3f3f3f;stop-opacity:1"/>
    </linearGradient>
    <linearGradient xlink:href="#a" id="d" x1="1370.4" x2="1726.1" y1="1928.6" y2="1928.6" gradientUnits="userSpaceOnUse"/>
    <linearGradient xlink:href="#b" id="c" x1="1544.2" x2="1544.2" y1="829.6" y2="1595.2" gradientUnits="userSpaceOnUse"/>
  </defs>
  <path d="M609 2603c-4-2-16-15-8-16 14 2 29-1 41 6 13-1 15-1 1 3-9 5-22 0-30 7zm1900-4c-14-4-34-7-11-8 12-5 25-2 38-4 8 9-18 23-27 12zm-1905-34c-36-8-71-23-99-47-14-13-28-27-36-44 12-9 39 3 56 2 31 4 61 10 92 9 34 1 68 0 101 2 21 1-11-17-17-22-15-11-29-24-46-33-33 5-65 23-99 20-22 1-43 1-64-6-62-17-118-54-161-102-15-20-28-41-37-64 7-5 16 5 23 6 55 21 113 34 166 61 16 6 37 19 49 24 7 2 7 4 13 4 13 7 32 12 48 18 24 9-3-19-10-26-24-23-44-50-68-73-19-3-46-3-59-7 2-5-25 0-27-6l-20-3c-7-2-3-3-14-4-13-5-28-10-38-16-23-12-43-30-61-50-29-38-54-82-67-129-7-21 4-15 15-7 54 36 106 75 160 113 21 13 40 33 65 38-16-37-35-72-52-109-21-7-47 0-69-9-3-4-7 1-10-6-10 1-16-10-24-12-27-23-47-54-65-84-18-33-35-66-43-102-1-10-17-50-3-44 36 41 74 80 112 119 10 11 20 20 34 37l30 33c12 10 19 0 11-13-8-24-13-49-23-72-16-11-31-22-43-36-11-6-26-25-36-38-8-13-24-35-31-53-22-46-34-98-37-149 0-28-2-57 5-84 1-19 11-40 11-56 6-6 9 19 12 31 9 73 38 140 59 210 10 28 21 56 34 83 10 9 13-6 11-14 0-17-3-34-9-50l-14-47c1-9-5-21-4-31-3-37 1-74 9-110 16-64 41-127 81-179 13-20 10 4 11 13 1 64-10 127-18 190-3 20-5 41-5 61 11 9 23-22 32-30l43-60c10 2 5 16 8 23v80c-5 80-34 161-88 221a36 36 0 0 0-10 42c9 17 6 54 28 59 11-19 4-53 13-77 6-29 15-58 29-84a189 189 0 0 1 72-76c8 1 6 13 8 20 1 36 2 73-4 109-5 35-13 72-35 101-17 26-42 45-64 67-1 14 10 25 15 38 14 26 27 54 43 78 11 6 8-11 8-18 1-37 3-75 18-109l55-103c1 1 5-25 13-12 12 30 18 62 20 94-1 24 2 48-1 71-5 31-17 59-33 86-8 23-42 44-32 67 19 27 37 55 67 70 16 0 2-23 5-33-2-22 1-44 3-66 9-50 24-100 25-151 20 23 30 53 42 81 11 29 15 60 14 91-4 45-22 86-30 130 18 19 41 36 65 49 11-1-2-24 1-32-3-29-3-58-1-87 3-26 5-53 3-79 0-21-8-41-10-62 31 18 49 54 64 86 12 29 22 59 22 90-1 31-19 59-17 89 1 13-4 27 4 37l74 38c-16 6-36 9-51-2-15-7-32-24-48-9-35 16-73 30-111 35l-58 1zm-277-576c-5-6-6-4-1 0zm2161 576c-41-2-79-16-116-32-14-7-28-15-41-4-14 4-26 20-40 16-8-3-42-8-22-8 22-12 44-24 68-33 8-7 2-19 4-28 0-16 1-32-5-47-10-30-16-62-7-93 7-33 21-65 39-93 6-7 18-26 29-35 26-26 4 21 5 33-5 27-1 53-2 80 4 36 6 73 1 109-2 13-8 43 14 23 20-12 38-27 55-43-11-35-21-70-29-105 0-7-3-17-2-26 0-20-2-41 4-61 8-31 21-59 35-87 3-11 14-10 9-14 12-9 6 31 11 40 9 53 26 105 23 159 0 14 1 27-3 40 14 10 31-15 42-23 15-15 25-33 38-50 1-13-15-23-19-35-14-22-27-44-37-68-4-6-5-14-8-24 0-9-4-13-5-22-5-41-3-83 7-124 1-13 7-22 9-33 3-11 8-18 15 0 17 40 41 77 59 118 14 37 14 77 15 117 15 9 20-27 29-35l39-76c-1-6-14-14-19-21-32-31-64-65-74-110-12-47-15-97-12-146 2-12 2-36 18-18 57 40 85 109 94 176 9 15-5 60 17 57 12-28 25-57 24-87-14-18-31-33-38-54-21-44-44-86-56-132-7-41-12-82-8-122 3-11 0-55 14-25 15 21 31 42 45 64 4 10 31 33 25 8-4-64-18-126-22-190v-71c13 4 19 22 28 32 38 64 63 135 72 208-1 24 1 48-1 72-6 32-20 62-25 94 0 12-4 25 1 36 18-3 18-32 27-46 28-76 55-153 72-232 4-13 4-46 13-49a397 397 0 0 1-58 352c-5 3-6 11-13 17-18 18-37 35-59 47l-26 88c6 13 17-8 23-12 55-63 116-123 174-184-5 59-31 115-62 166-25 39-56 84-106 90-16 2-33 5-49 1-18 31-31 65-47 97-20 31 26 1 35-7 65-46 129-94 196-136 7 9-4 24-5 36-26 71-73 142-147 170-33 13-68 17-103 22-13 1-30-4-37 10-26 29-52 58-80 86 5 14 30-6 40-6 67-27 130-62 200-80 20-2 57-27 67-20-25 66-84 114-145 145a225 225 0 0 1-158 20c-18-4-38-12-57-16l-69 51c1 8 16 1 23 4 51-1 102 2 153-7 26-4 53-6 80-9-16 40-54 66-92 82-21 8-42 14-64 13h-23zm-101-344c-2-3-2 2 0 0zm454-327c-1-2-1 2 0 0zM892 2537c2-3 2 2 0 0zm1364 0c2-3 2 2 0 0zm-1356-7c-8-10-9-24-14-35-6-16-10-33-8-50 0-32 2-64 1-95l-15-66c25 7 46 25 61 46 39 54 54 121 54 187-25 4-51 9-76 15l-3-2zm1331 1c-25-7-50-11-76-17 2-6-2-16 1-24 8-65 24-134 72-181 12-11 27-21 43-24-4 24-13 48-15 72-2 29-2 58 1 87 2 28-8 54-18 79-12 6 4 11-8 8zm-94-20c2-2 2 3 0 0zm-1106-23c-10-31-19-63-26-96 20 3 39 14 54 27 7 4 18 15 26 23 14 14 25 33 37 48l-86 15-5-17zm1070 17c2-3 2 2 0 0zm-10-3-76-13c-6 3 13-15 14-21 12-19 28-34 45-49 17-11 35-24 56-27-7 38-20 74-30 111l-9-1zM528 2369c2-3 2 2 0 0zm-83-83c2-2 2 2 0 0zm-20-4c2-2 2 2 0 0zm198-476c1-2 1 2 0 0zm-75-108c2-2 2 2 0 0z" style="fill:#09a05b"/>
  <path d="m21 3402 51-57c43-45 83-93 125-139 57-63 116-124 175-185-3-7-14-5-21-9-96-24-195-40-293-59l-37-7c9-6 21-10 31-15a6610 6610 0 0 1 455-186c16-6 34-11 50-19v-105c19-7 39-12 58-18l77-20 140-33c7-6 16-5 25-6l36-8c8-2 16-6 24-7 39-9 78-14 116-23a3363 3363 0 0 1 254-38l62-6c4 0 13-4 5-7l-33-7a1037 1037 0 0 1-391-180 1041 1041 0 0 1-368-519 965 965 0 0 1 26-637 1065 1065 0 0 1 267-384 1086 1086 0 0 1 625-267c45-4 91-2 137-2a990 990 0 0 1 251 42 1054 1054 0 0 1 409 225 1015 1015 0 0 1 250 337 991 991 0 0 1 86 361l-1 109a960 960 0 0 1-191 517c-38 52-81 99-126 144-7 5-8 16-17 18-11 4-18 13-27 20a1082 1082 0 0 1-470 223c-1 7 11 4 16 6 61 7 123 13 184 23l67 10 66 13 71 13 183 43 202 52c4 13 2 27 3 40v66c7 6 16 8 24 11a6225 6225 0 0 1 413 172l85 40c10 5-9 6-13 6l-146 25c-62 10-124 24-186 38-7 5 7 12 10 17 65 67 128 135 189 204l144 162c2 3 12 12 2 9a6146 6146 0 0 0-745-294c-7-3-16-1-22-5l-1-97c-24-8-49-12-73-19a3133 3133 0 0 0-601-88h-178c-100 6-200 15-299 31-118 18-236 42-352 70-8 4-23 1-22 13l-1 93c-8 0-15 0-22 3a5466 5466 0 0 0-650 245c-37 16-73 34-109 49-6 2 1-3 1-4zm132-93c48-22 98-42 147-62 102-42 205-81 309-116l98-33c0-7-11-4-16-7l-122-19c-5-1-18 7-17-2l-1-270v-33c-5-6-13 2-20 3-98 36-196 73-292 114l-106 45c-4 6 12 4 16 7 56 11 112 20 167 34l109 25c7-1 6 5 1 8-25 29-52 56-78 83-49 49-96 100-142 151l-66 74c-5 9 11-1 13-2zm2823 4c-5-8-12-14-18-21a11936 11936 0 0 0-277-299l117-27c59-13 118-24 178-33 4 0 8-2 2-5a6235 6235 0 0 0-340-143c-21-8-42-18-65-24v308c-1 8-8 7-13 3-11 0-21 2-32 4l-114 19c5 8 16 6 24 11a5155 5155 0 0 1 530 206c2 1 8 5 8 1zM772 3045v-26c-12 0-24 5-36 7-26 7-53 13-79 21 1 7 13 3 18 6 28 4 55 10 83 15 4-1 14 7 14-1v-22zm1602 21c31-6 63-10 94-17-6-7-17-6-25-9l-91-23c-3 3-1 8-1 12v40c7 2 14-2 22-3h1zm-1729-53a6532 6532 0 0 1 481-112l81-12c18-3 36-6 53-5 13-1 26-6 39-5 23-4 46-6 69-7 39-2 78-7 117-6h171a2845 2845 0 0 1 496 66c93 21 184 44 276 67l105 29c5 2 11 3 10-4v-377c-5-7-15-6-22-9-144-39-289-74-436-101a2863 2863 0 0 0-516-52c-78 2-157 4-235 13-100 9-200 24-299 44-152 29-303 65-453 107-4 7-1 17-2 26v354c13-1 25-6 37-8l28-8zm81-81-62-229c-1-7 10-5 14-8l46-11c1 13 7 26 10 39l37 137c13-1 26-6 38-8 19-5 37-10 55-13 6 5 5 17 8 24l8 29c-2 7-12 5-18 8l-133 33-3-1zm1712-2-49-12v-39c-7-5-16-5-23-8l-45-11c-8 11-13 24-21 35-9 0-18-4-27-5l-32-9c0-8 8-14 11-21l95-152 26-41c6-3 13 2 19 2 16 4 32 7 47 12 3 6 1 13 2 19l10 230c-2 5-9 0-13 0zm-48-109 1-80c-3-10-8 4-10 8l-27 50c-4 5-11 16 0 16 12 3 23 7 35 8zm-1447 53c-6-2-13-4-17-8-10-6-18-14-24-23-14-21-20-45-26-69l-26-119c6-6 16-4 24-7l36-7 4 22c11 42 19 85 30 127 3 7 5 16 11 20 4 5 10 9 16 10l20-1c8-2 13-9 17-16 4-8 5-16 3-25l-21-96-13-54c11-5 22-6 33-9l28-5 33 146c2 11 2 23 2 35 1 9-2 18-5 27-4 8-6 18-14 24-7 7-13 15-24 18-18 9-38 12-58 13-9 0-18 2-26-2l-3-1zm1205-11-91-18c-4-5 1-12 1-17l47-219c21 2 42 7 63 11 17 3 35 6 51 12 8 4 16 7 21 13 6 6 13 12 16 21 5 9 7 19 9 28 1 14 3 28 0 42-4 35-12 71-35 99a90 90 0 0 1-41 28h-41zm22-56c8-2 14-9 17-17 5-9 9-18 11-27 3-14 6-28 7-43-1-7 1-16-4-22-2-8-8-14-15-17l-29-9c-5 4-4 12-6 17-9 37-15 74-24 110 1 9 11 5 17 8h26zm-1053 38c-4-17-6-34-7-51 28-49 57-97 84-147 4-8-8-4-12-3l-84 11c-4-16-6-32-8-48 5-5 16-3 23-6l149-21c4 5 3 14 5 21l4 27c-28 49-57 98-84 148-3 4-5 10 2 7 37-4 73-11 109-15 2 16 6 33 7 50-8 3-18 3-26 5l-161 23-1-1zm873-12-37-5c-7-3-2-11-2-16l37-222c8-4 16 2 25 1l35 6c2 7-2 14-2 20l-30 182-6 36c-7 1-13-1-20-2zm-157-18-50-6-49-238c-4-7 2-10 8-8l53 4 27 167c0 6 5 13 6 3l46-125 12-35 60 5c5 6-5 14-5 21l-63 147c-9 21-17 43-28 64-4 4-12 0-17 1zm-404-11c-2-23-2-47-3-70l-6-165c-1-10 13-5 19-6l144-5c5 3 2 9 3 14l1 36c-8 2-17 1-26 2l-75 2c-6 4-2 12-3 17l1 20c5 7 15 1 22 3l75-3 2 48-95 4c-4 5 0 15-1 22l1 24c7 5 16 1 24 2 27-1 54-3 82-3 4 8 1 17 3 25l1 29-168 6-1-1zm115-469v-98c-6-5-15-4-22-8-7-3-13-8-18-14-7-6-11-13-14-21-9-23-14-48-22-73l-37-129c-5-6-15 1-22 1-58 11-115 26-170 47-11 4-23 7-34 13-7 8 7 18 9 26 83 137 193 258 322 352 6 6 10 0 8-6v-90zm64 77c50-40 97-83 142-128l49-55c37-45 70-92 101-141l25-44c6-10-11-9-17-12-71-23-145-41-220-49-7 1-19-6-21 4l-62 208c-4 7-6 15-13 21l-7 7v203c7 3 13-8 19-11l4-3zm-173 12c-12-13-27-23-40-35a1306 1306 0 0 1-246-309c-6-3-13 5-19 7-51 25-100 52-146 84l-57 37c-5 10 12 13 17 20 140 106 309 173 483 197 2 0 7 2 8-1zm284-1a1025 1025 0 0 0 513-234c-3-8-14-9-20-15-73-44-150-83-229-115-7 7-10 17-15 26a1219 1219 0 0 1-233 294c-16 16-33 31-52 44-3 7 10 2 15 2l21-2zm-819-233c-3-8-14-13-14-20 5-6 13-9 19-14 41-28 83-56 127-82l58-30 30-15c1-7-6-14-8-21-66-137-104-286-113-437l-2-74c-8-5-17-1-26-2H562c-3 10 0 21 0 32 6 75 20 149 41 221a919 919 0 0 0 117 241c48 73 107 140 173 197 2 1 5 6 7 4zm1390-54a954 954 0 0 0 278-634c2-8-9-7-14-7h-430c-3 8-1 17-2 25a1255 1255 0 0 1-114 487c5 6 14 6 21 10a1736 1736 0 0 1 245 130c8 1 11-8 16-11zm-1109-133c25-12 52-20 78-30 49-16 98-28 149-36 11-2 2-13 1-20l-72-251c1-9-9-8-15-7-18 1-36-3-54-8-41-11-78-37-103-72-17-23-29-51-37-79-3-8-13-3-20-4-17 0-35-1-53 1-3 6 0 14-1 21 4 159 40 318 108 462l12 24c2 1 5 0 7-1zm776-22c16-37 33-73 46-112a1247 1247 0 0 0 62-371c-2-5-7-3-11-3h-138c-9 11-14 25-22 36-29 45-70 84-119 106-9 7-10 19-13 29l-69 234c-2 9-8 19-7 27 27 4 55 7 82 12a1107 1107 0 0 1 181 48c5 4 8-2 8-6zm-960-542c3-5 1-12 2-18a1177 1177 0 0 1 111-429c-5-6-14-6-20-10a1468 1468 0 0 1-171-87c-32-19-62-40-93-61-5-3-10-6-10-12l-40 47a970 970 0 0 0-216 564c-2 8 6 7 12 7h423zm124-1c3-8 1-19 3-28 9-54 32-105 68-146 43-50 100-85 158-112 6-3 13-5 15-12 14-24 26-49 39-74-9-4-19-3-29-5-70-11-139-28-206-49-9-1-9 13-13 19a1172 1172 0 0 0-100 406c1 5 7 2 11 3h53v-1zm941 0c3-5 0-13 0-19a1159 1159 0 0 0-85-358l-22-52c-7-3-16 3-23 4-56 17-112 30-169 42-9 3 5 6 8 8 29 15 58 32 83 53 10 11 22 21 32 33a306 306 0 0 1 66 163c0 18 1 37-1 55-3 24-6 47-14 69 1 6 7 3 12 4h112l1-2zm505-13c-2-109-30-216-71-317a904 904 0 0 0-177-278 1502 1502 0 0 1-305 156c-11 2 0 13 1 19a1225 1225 0 0 1 105 426c-1 9 6 10 12 9l435-1v-14zm-1136-415c8-16 13-34 20-51 28-72 43-148 49-224 1-17 2-34 5-50 7 3 12 14 18 19 6 7 12 17 20 21 2-3 0-8 1-12V549c-8-2-13 8-20 12-44 35-86 74-126 114l-35 37c-8 7-13 16-20 24-40 47-77 96-109 148-7 8-10 18-16 27l-27 48c21 9 43 14 65 21 46 12 93 21 140 27 10 2 21 2 31 5l4-2zm317-10c56-11 112-23 167-39 6-2 16-5 9-12a1327 1327 0 0 0-311-374c-9-6-18-16-26-20-5 8-1 18-2 27v196c29 39 58 77 80 120 13 23 24 46 35 69l16 37c8 1 17-2 26-3l6-1zm-605-72a1261 1261 0 0 1 253-329c34-33 69-64 106-92 6-8-11-3-15-4a1028 1028 0 0 0-599 250l-33 29c1 8 12 11 17 16a1292 1292 0 0 0 261 140c6 1 7-6 10-10zm855 3a1616 1616 0 0 0 281-141c-4-7-12-12-17-18l-65-58c-6-2-5-8-12-7 0-5-9-3-12-9l-71-47a1022 1022 0 0 0-490-150c3 8 13 10 19 16 44 34 84 73 123 113a1365 1365 0 0 1 227 308l17-7zM463 1040 247 935c-4-4-15-5-14-12 13-25 24-51 38-76 6-2 12 5 19 7l253 123c-6 7-8 17-13 24l-28 57c-6 0-12-6-18-8l-21-10zm2124-111c-41-8-76-37-100-70-11-16-21-34-28-52-2-11-7-22-6-33 0-9-1-19 1-28 3-11 4-24 11-35 10-24 27-45 48-61 23-18 49-33 77-41l32-2c12 1 25 1 36 6 18 6 34 16 49 27 11 12 23 22 32 35 16 22 30 45 35 72 3 10 4 20 3 31 1 13-3 26-7 38-12 34-38 60-66 80-18 14-39 25-62 31-11 3-22 6-34 5l-21-3zm23-84c28-10 52-29 72-51 6-7 11-15 13-25 3-8 4-16 2-24-3-8-4-17-9-23-6-11-16-19-27-26-7-4-16-4-24-6-9 2-19 3-27 6-28 14-56 34-72 62-4 10-8 20-7 31 2 8 3 15 7 22 5 10 11 19 20 25 5 5 12 8 19 10 8 3 16 2 24 2l9-3zM560 901 387 755l-41-34c3-10 11-16 17-23l36-43c63 5 126 13 190 18 4 2 13 3 8-4L479 569c-10-6 5-13 8-19 14-17 27-34 42-50l68 56 153 129c5 3 11 8 5 14l-39 47c-5 6-11 16-21 12l-88-8-81-9-21-1c-1 6 10 10 14 15l110 91c-2 9-10 13-15 20l-37 44c-7 3-12-6-17-9zm1727-246-52-38c-1-8 7-12 10-18l107-149c3-7 18-16 9-23-23-18-47-34-70-53 0-5 7-10 10-15l30-42c9 0 14 10 21 13l149 108 58 42c1 7-6 11-8 16l-31 41c-10 1-17-10-25-13l-53-38c-8 3-10 12-15 18a12003 12003 0 0 1-119 163c-7 1-11-6-17-9l-4-3zM815 619c-16-4-30-12-43-22-5-6-12-11-16-18-3-9 8-11 13-16l50-35c8-2 12 7 17 11 6 5 13 7 20 11 10-2 21 0 30-3 7-4 15-6 20-12s10-12 13-19c0-7 3-14-1-21-5-9-14-16-24-17-9 0-19 1-28 4-26 7-52 16-79 20h-36c-11-3-21-7-31-12-6-7-15-13-19-22-5-9-10-17-11-27-3-8-2-16-1-25 2-19 12-38 25-53a237 237 0 0 1 107-63c10-1 21-4 31-2 10 0 19 4 28 9 8 3 14 8 20 13 5 5 11 10 13 17-3 5-12 8-17 13-17 11-34 24-52 34-8-6-16-14-26-16-8 0-16-1-23 3-14 5-28 15-31 30-2 9 6 18 14 21 6 3 13 1 20-1l58-17c13-4 27-8 40-9 16 0 31-2 46 3 8 4 16 7 23 12 7 8 16 13 20 23 6 12 13 25 14 38-1 14 2 28-3 41-10 31-34 55-61 73-20 13-42 24-64 32-10 2-19 6-29 6-9-1-18 1-26-3l-1-1zm1216-119c-17-4-35-7-51-15-17-7-35-15-51-24-12-9-23-19-31-32-6-12-13-25-16-39 0-13-1-27 1-40 4-24 13-47 21-70l46-125c2-11 14 0 21 1l64 24c3 8-4 15-5 22l-55 151c-3 9-6 17-6 26 3 9 4 18 11 25 10 13 26 19 42 23 8-1 17 0 24-4 7-5 15-10 20-17 9-15 13-32 20-48l50-139c9-1 17 5 26 7l60 22c0 7-5 14-7 22l-55 149c-7 16-14 31-25 45-8 7-15 15-25 20-7 5-15 9-24 11-7 3-15 6-23 6l-32-1zm-882-31c-18-54-33-109-51-164l-14-46c-7-4-14 3-21 4l-70 20c-6-3-4-13-7-18l-16-51c27-6 52-16 78-23l189-58c8-2 7 12 10 17l15 51-21 7-67 21c-3 8 3 17 5 25l59 193c-12 6-24 8-36 12-17 5-33 11-51 14-2 0-1-3-2-4zm234-54c-3-6-2-14-3-21l-13-122c-6-50-10-101-17-151 1-6 12-3 17-5l74-8c5 30 6 61 10 91l20 191c-1 7 6 20-5 19l-57 5c-8 1-18 3-26 2zm318-2c-27-3-54-3-80-7-4-6 0-16-1-23l14-201c-6-5-14-3-20-4l-70-5c-9-2-4-12-4-18l3-54 100 6 177 13c9-1 3 11 4 17l-4 55c-32-1-63-4-94-7-3 14-3 28-4 43l-13 178c-1 5-2 10-8 7z" style="fill:#333691"/>
  <path d="M1530 768c-4 1-1 14-1 18 0 7-7 49-11 72-4 22-37 121-44 138s-62 140-101 203-50 142-52 167c-2 26 3 46 18 91 16 44 78 115 115 149 36 33 48 44 50 48 2 5 52 3 59 0-5-15 6-108 17-175 11-68 49-127 100-183 50-56 47-121 42-168s-34-117-50-152c-17-36-77-124-115-179-16-24-24-30-27-29zm245 336c-11 1 4 45 5 85 2 44-16 107-35 134-18 28-70 71-102 110s-43 168-28 205c7 4 31 2 63 1s88-24 107-37c20-12 48-38 60-53 13-14 48-69 57-87 10-19 20-70 25-116 4-46-28-122-49-155a362 362 0 0 0-103-87zm-429 87-9 5c-6 3-18 11-33 16-15 6-57 43-76 62s-49 73-58 98c-9 24-12 73-4 106 7 33 33 81 64 111s97 47 105 48c8 2-1 2 22 2 24 0 71-4 71-7 0-2-5-3-11-7-7-4-24-14-42-30-18-15-39-45-60-82-21-38-29-95-31-139-1-44 16-97 38-141 23-44 27-40 25-42h-1z" style="fill:url(#c);fill-opacity:1;stroke:none;stroke-width:1;stroke-linecap:round;stroke-linejoin:round;stroke-dasharray:none;stroke-opacity:1"/>
  <path d="m1370 1655 360-3s-144 550-180 554c-38 4-180-551-180-551z" style="fill:url(#d);stroke:none;stroke-width:1;stroke-linecap:round;stroke-linejoin:round;stroke-dasharray:none;stroke-opacity:1"/>
</svg>
