<svg width="40" height="44" viewBox="0 0 40 44" fill="none" xmlns="http://www.w3.org/2000/svg">
<path d="M18.3333 26.7619H21.6667C22.5507 26.7619 23.3986 26.4107 24.0237 25.7856C24.6488 25.1604 25 24.3126 25 23.4285C25 22.5445 24.6488 21.6966 24.0237 21.0715C23.3986 20.4464 22.5507 20.0952 21.6667 20.0952H16.6667C15.6667 20.0952 14.8333 20.4285 14.3333 21.0952L5 30.0952" stroke="#36383E" stroke-linecap="round" stroke-linejoin="round"/>
<path d="M11.6666 36.7619L14.3333 34.4286C14.8333 33.7619 15.6666 33.4286 16.6666 33.4286H23.3333C25.1666 33.4286 26.8333 32.7619 27.9999 31.4286L35.6666 24.0953C36.3097 23.4875 36.6851 22.6491 36.7101 21.7645C36.7351 20.88 36.4077 20.0217 35.7999 19.3786C35.1921 18.7354 34.3537 18.3601 33.4692 18.3351C32.5847 18.3101 31.7264 18.6375 31.0833 19.2453L24.0833 25.7453M3.33325 28.4286L13.3333 38.4286" stroke="#36383E" stroke-linecap="round" stroke-linejoin="round"/>
<path d="M32.4999 13.0238C33.6666 11.8572 34.9999 10.3572 34.9999 8.52385C35.1164 7.50539 34.8856 6.47744 34.3448 5.60658C33.8041 4.73571 32.9851 4.07297 32.0206 3.72575C31.0561 3.37853 30.0026 3.36718 29.0308 3.69354C28.0591 4.01989 27.226 4.66484 26.6666 5.52385C26.0716 4.73148 25.2383 4.15072 24.289 3.86682C23.3397 3.58292 22.3244 3.61083 21.3921 3.94645C20.4598 4.28208 19.6596 4.90774 19.1091 5.73159C18.5586 6.55544 18.2866 7.53408 18.3333 8.52385C18.3333 10.5238 19.6666 11.8572 20.8333 13.1905L26.6666 18.8572L32.4999 13.0238Z" stroke="#455074" stroke-linecap="round" stroke-linejoin="round"/>
</svg>
