<svg width="40" height="34" viewBox="0 0 40 34" fill="none" xmlns="http://www.w3.org/2000/svg">
<path d="M16.6667 30.5556C24.3373 30.5556 30.5556 24.3373 30.5556 16.6667C30.5556 8.9961 24.3373 2.77783 16.6667 2.77783C8.9961 2.77783 2.77783 8.9961 2.77783 16.6667C2.77783 24.3373 8.9961 30.5556 16.6667 30.5556Z" stroke="#36383E" stroke-linecap="round" stroke-linejoin="round"/>
<path d="M16.6668 25.0002C21.2692 25.0002 25.0002 21.2692 25.0002 16.6668C25.0002 12.0645 21.2692 8.3335 16.6668 8.3335C12.0645 8.3335 8.3335 12.0645 8.3335 16.6668C8.3335 21.2692 12.0645 25.0002 16.6668 25.0002Z" stroke="#36383E" stroke-linecap="round" stroke-linejoin="round"/>
<path d="M16.6667 19.4445C18.2008 19.4445 19.4445 18.2008 19.4445 16.6667C19.4445 15.1326 18.2008 13.8889 16.6667 13.8889C15.1326 13.8889 13.8889 15.1326 13.8889 16.6667C13.8889 18.2008 15.1326 19.4445 16.6667 19.4445Z" stroke="#36383E" stroke-linecap="round" stroke-linejoin="round"/>
<path d="M30.5888 9.22917L36.1123 8.79616L33.2256 3.79616L30.0888 8.36314L30.5888 9.22917ZM16.5464 17.3366L31.0218 8.97917L30.5218 8.11314L16.0464 16.4706L16.5464 17.3366Z" fill="#FAB515"/>
</svg>
