<svg width="42" height="37" viewBox="0 0 42 37" fill="none" xmlns="http://www.w3.org/2000/svg">
<g id="&#240;&#159;&#166;&#134; icon &#34;waze&#34;">
<path id="Vector" d="M23.2985 0.282952C22.9048 0.288203 22.511 0.305703 22.1173 0.335453C18.3284 0.606707 14.6009 1.95248 11.4964 4.40776C7.6568 7.43881 5.72827 11.9766 5.37826 16.7454H5.38176C5.21901 18.8805 4.97926 20.508 4.561 21.348C4.1445 22.1863 3.82599 22.4645 2.39097 22.4663C0.471193 22.454 -0.701324 24.8218 0.464193 26.3443C2.64822 29.2441 5.54277 31.0781 8.72431 32.2314C8.68712 32.4435 8.6678 32.6583 8.66656 32.8737C8.66679 33.379 8.76657 33.8792 8.9602 34.346C9.15383 34.8127 9.43751 35.2367 9.79505 35.5937C10.1526 35.9507 10.577 36.2339 11.0439 36.4268C11.5109 36.6198 12.0113 36.7189 12.5166 36.7185C13.3739 36.7165 14.2059 36.4282 14.8806 35.8993C15.5553 35.3705 16.034 34.6314 16.2407 33.7994C18.528 34.0094 20.803 34.0444 22.9328 33.9744C23.5698 33.9534 24.2103 33.8957 24.8473 33.8134C25.0566 34.6425 25.5362 35.3782 26.2103 35.9043C26.8843 36.4304 27.7145 36.7169 28.5696 36.7185C29.0749 36.7189 29.5753 36.6198 30.0423 36.4268C30.5093 36.2339 30.9336 35.9507 31.2912 35.5937C31.6487 35.2367 31.9324 34.8127 32.126 34.346C32.3196 33.8792 32.4194 33.379 32.4196 32.8737C32.4189 32.3964 32.3293 31.9234 32.1554 31.4789C33.5979 30.7322 34.9502 29.8226 36.1857 28.7681C39.8503 25.6058 42.33 21.0698 41.9643 15.8109C41.7683 12.7956 40.6325 10.0393 38.9052 7.74681C35.1549 2.74174 29.2276 0.205951 23.2985 0.282952ZM23.939 2.97799C24.485 2.99199 25.0293 3.02524 25.5718 3.08824C29.9119 3.59225 34.0454 5.70628 36.772 9.34808C38.2227 11.2731 39.1432 13.5254 39.3025 15.9859V15.9912C39.6053 20.326 37.6137 24.0115 34.4427 26.7486C33.1827 27.8246 31.785 28.728 30.2864 29.4349C29.7541 29.1674 29.167 29.0272 28.5713 29.0254C27.8768 29.0261 27.1954 29.2149 26.5995 29.5717C26.0036 29.9285 25.5154 30.44 25.1868 31.0519C24.413 31.1901 23.6307 31.2755 22.8453 31.3074C20.5256 31.3899 18.203 31.3033 15.8959 31.0484C15.5671 30.4377 15.0793 29.9272 14.4841 29.5711C13.8889 29.215 13.2085 29.0264 12.5149 29.0254C11.6609 29.0263 10.8316 29.3114 10.1576 29.8356C7.31204 28.8679 4.771 27.3471 2.88623 25.0021C4.72725 24.8341 6.23928 23.952 6.94454 22.538C7.7198 20.9823 7.87205 19.1307 8.0383 16.9414V16.9379C8.34456 12.7536 9.98083 8.99983 13.1484 6.50079H13.1519C16.2494 4.04726 20.1135 2.89224 23.939 2.97799ZM18.4142 11.0946C17.2102 11.0946 16.2232 12.1079 16.2232 13.3661C16.2232 14.6262 17.2102 15.6359 18.4142 15.6359C19.62 15.6359 20.6052 14.6262 20.6052 13.3661C20.6052 12.1219 19.62 11.0946 18.4142 11.0946ZM28.0638 11.0946C26.8598 11.0946 25.8763 12.1079 25.8763 13.3661C25.8623 14.6262 26.8458 15.6359 28.0638 15.6359C29.2679 15.6359 30.2549 14.6262 30.2549 13.3661C30.2549 12.1219 29.2679 11.0946 28.0638 11.0946ZM16.8707 18.1157C16.6666 18.1187 16.4664 18.1713 16.2871 18.2688C16.1079 18.3664 15.955 18.506 15.8417 18.6757C15.7466 18.8116 15.6804 18.9657 15.6473 19.1282C15.6142 19.2908 15.6148 19.4584 15.6492 19.6207C16.2529 22.741 19.4555 25.0966 23.1113 25.0966H23.33C25.178 25.0406 26.8756 24.4963 28.2581 23.483C29.6004 22.51 30.5156 21.18 30.8429 19.7432C30.9132 19.4149 30.8543 19.072 30.6784 18.786C30.5937 18.6444 30.4809 18.5216 30.347 18.4253C30.213 18.329 30.0608 18.2612 29.8996 18.226C29.738 18.1864 29.57 18.1794 29.4057 18.2056C29.2414 18.2318 29.0839 18.2905 28.9425 18.3784C28.8012 18.4663 28.6789 18.5815 28.5827 18.7173C28.4865 18.8531 28.4183 19.0067 28.3823 19.1692C27.9973 20.7967 26.1091 22.4943 23.2478 22.5643C20.4967 22.6448 18.4562 20.8387 18.1272 19.1412C18.072 18.8497 17.9157 18.587 17.6859 18.3994C17.456 18.2118 17.1673 18.1114 16.8707 18.1157Z" fill="#36383E"/>
</g>
</svg>
