<svg width="42" height="43" viewBox="0 0 42 43" fill="none" xmlns="http://www.w3.org/2000/svg">
<g id="&#240;&#159;&#166;&#134; icon &#34;google maps&#34;">
<g id="Clip path group">
<mask id="mask0_55_73" style="mask-type:luminance" maskUnits="userSpaceOnUse" x="10" y="5" width="22" height="33">
<g id="a">
<path id="Vector" d="M30.7619 11.6564C30.0956 10.3686 29.1794 9.22657 28.0667 8.29697C26.954 7.36737 25.6671 6.66889 24.2814 6.24234C23.2183 5.91564 22.1123 5.74974 21.0001 5.75015C19.3884 5.74161 17.7948 6.09029 16.3338 6.77111C14.8729 7.45192 13.581 8.44798 12.5509 9.68765C10.8963 11.6649 9.99542 14.1642 10.0079 16.7423C10.0079 19.8595 11.0743 21.9923 11.0743 21.9923C12.3048 24.6173 14.5197 26.9962 16.0783 29.047C16.9811 30.2204 17.8033 31.4537 18.5392 32.7384C19.1203 33.8363 19.5876 34.9908 19.9337 36.1837C20.1798 37.0041 20.4259 37.2502 21.0001 37.2502C21.5743 37.2502 21.9025 36.84 22.0665 36.1837C22.3946 35.0229 22.8341 33.8966 23.379 32.8205C24.4659 30.9996 25.7005 29.2712 27.0704 27.6525C27.4806 27.1603 29.6954 24.4533 30.7619 22.4025C30.7619 22.4025 31.9923 20.0236 31.9923 16.8244C31.9923 13.7892 30.7619 11.6564 30.7619 11.6564Z" fill="white"/>
</g>
</mask>
<g mask="url(#mask0_55_73)">
<g id="Group">
<g id="Vector_2">
<path d="M8.53174 31.5898L21.0005 16.7422L8.53174 31.5898Z" fill="#36383E"/>
<path d="M8.53174 31.5898L21.0005 16.7422" stroke="#FAB515" stroke-width="46.5105"/>
</g>
<g id="Vector_3">
<path d="M21.0005 16.7422L31.0083 4.84766L21.0005 16.7422Z" fill="#36383E"/>
<path d="M21.0005 16.7422L31.0083 4.84766" stroke="#4285F4" stroke-width="46.5105"/>
</g>
<g id="Vector_4">
<path d="M15.5044 38.1523L35.438 14.3633L15.5044 38.1523Z" fill="#36383E"/>
<path d="M15.5044 38.1523L35.438 14.3633" stroke="#34A853" stroke-width="46.5105"/>
</g>
<g id="Vector_5">
<path d="M20.9185 10.3438L14.438 4.84766L20.9185 10.3438Z" fill="#36383E"/>
<path d="M20.9185 10.3438L14.438 4.84766" stroke="#1A73E8" stroke-width="46.5105"/>
</g>
<g id="Vector_6">
<path d="M6.23486 19.5312L13.6997 10.5898L6.23486 19.5312Z" fill="#36383E"/>
<path d="M6.23486 19.5312L13.6997 10.5898" stroke="#EA4335" stroke-width="46.5105"/>
</g>
</g>
</g>
</g>
<path id="Vector_7" d="M21 20.9258C23.3105 20.9258 25.1836 19.0527 25.1836 16.7422C25.1836 14.4317 23.3105 12.5586 21 12.5586C18.6895 12.5586 16.8164 14.4317 16.8164 16.7422C16.8164 19.0527 18.6895 20.9258 21 20.9258Z" fill="#FEFEFE"/>
</g>
</svg>
