<svg width="40" height="44" viewBox="0 0 40 44" fill="none" xmlns="http://www.w3.org/2000/svg">
<g clip-path="url(#clip0_152_2920)">
<path d="M25 26.8889C25.3333 25.2223 26.1667 24.0556 27.5 22.7223C29.1667 21.2223 30 19.0556 30 16.8889C30 14.2368 28.9464 11.6932 27.0711 9.81785C25.1957 7.94248 22.6522 6.88892 20 6.88892C17.3478 6.88892 14.8043 7.94248 12.9289 9.81785C11.0536 11.6932 10 14.2368 10 16.8889C10 18.5556 10.3333 20.5556 12.5 22.7223C13.6667 23.8889 14.6667 25.2223 15 26.8889M15 33.5556H25M16.6667 40.2223H23.3333" stroke="#36383E" stroke-linecap="round" stroke-linejoin="round"/>
<path d="M27.4365 4.64307L29.2071 1.55974" stroke="#FAB515" stroke-linecap="round"/>
<path d="M12.2275 3.81128L9.98753 1.05006" stroke="#FAB515" stroke-linecap="round"/>
<path d="M19.9746 2.87476L20.0181 -0.680534" stroke="#FAB515" stroke-linecap="round"/>
<path d="M31.3159 8.17871L34.0898 5.95443" stroke="#FAB515" stroke-linecap="round"/>
<path d="M8.2251 8.7251L5.21522 6.83232" stroke="#FAB515" stroke-linecap="round"/>
<path d="M32.7095 13.8887L36.0597 12.6979" stroke="#FAB515" stroke-linecap="round"/>
<path d="M3.95215 13.0459L7.39794 13.9225" stroke="#FAB515" stroke-linecap="round"/>
<path d="M31.8892 18.302L35.2975 19.3145" stroke="#FAB515" stroke-linecap="round"/>
<path d="M7.85059 18.6599L4.44634 19.6861" stroke="#FAB515" stroke-linecap="round"/>
</g>
<defs>
<clipPath id="clip0_152_2920">
<rect width="40" height="43.5556" fill="white"/>
</clipPath>
</defs>
</svg>
